<svg t="1684975563499" class="icon" viewBox="0 0 1024 1024" version="1.1" xmlns="http://www.w3.org/2000/svg" p-id="1370" width="16" height="16"><path d="M871.537778 0C924.302222 0 967.111111 44.430222 967.111111 99.185778v825.628444C967.111111 979.569778 924.302222 1024 871.537778 1024H152.462222C99.697778 1024 56.888889 979.569778 56.888889 924.814222V99.185778C56.888889 44.430222 99.697778 0 152.462222 0h719.075556zM834.275556 66.133333H189.724444c-34.247111 0-62.122667 28.558222-62.634666 63.914667v764.956444c0 35.527111 27.534222 64.455111 61.610666 64.967112H834.275556c34.247111 0 62.122667-28.558222 62.634666-63.914667V131.214222c0.085333-35.982222-28.046222-65.080889-62.634666-65.080889z m-79.075556 709.831111c16.128 0 29.212444 13.568 29.212444 30.321778 0 16.782222-13.084444 30.350222-29.240888 30.350222H269.795556c-16.128 0-29.212444-13.596444-29.212445-30.350222s13.084444-30.321778 29.212445-30.321778H755.2z m0-134.485333c16.128 0 29.212444 13.596444 29.212444 30.350222s-13.084444 30.321778-29.240888 30.321778H269.795556c-16.128 0-29.212444-13.568-29.212445-30.321778 0-16.782222 13.084444-30.350222 29.212445-30.350222H755.2zM403.171556 198.656l117.248 316.899556c4.181333 11.377778-1.28 24.177778-12.231112 28.501333a21.048889 21.048889 0 0 1-27.448888-12.714667l-33.479112-90.453333h-132.266666l-33.564445 90.823111a20.963556 20.963556 0 0 1-27.107555 12.8l-0.341334-0.199111c-10.951111-4.323556-16.412444-17.095111-12.231111-28.472889l117.248-316.899556a21.219556 21.219556 0 0 1 20.565334-14.108444 21.048889 21.048889 0 0 1 23.608889 13.824z m352 273.066667c16.156444 0 29.240889 13.596444 29.240888 30.350222 0 16.782222-13.084444 30.350222-29.240888 30.350222h-167.793778c-16.156444 0-29.240889-13.596444-29.240889-30.350222s13.084444-30.321778 29.240889-30.321778h167.822222z m-89.713778-278.784c12.913778 0 23.381333 10.837333 23.381333 24.234666v61.724445h48.839111c12.913778 0 23.381333 10.865778 23.381334 24.263111 0 13.368889-10.467556 24.234667-23.381334 24.234667h-48.839111v50.716444c0 13.368889-10.467556 24.234667-23.381333 24.234667-12.913778 0-23.352889-10.837333-23.352889-24.234667V327.395556h-60.586667c-12.913778 0-23.381333-10.837333-23.381333-24.234667s10.467556-24.263111 23.381333-24.263111h60.586667v-61.724445c0-13.397333 10.439111-24.234667 23.352889-24.234666zM381.184 261.973333l-49.863111 134.826667h99.754667l-49.863112-134.826667z" p-id="1371" fill="#d4237a"></path></svg>